<?xml version="1.0" encoding="utf-8"?>
<!-- Generator: Adobe Illustrator 23.0.3, SVG Export Plug-In . SVG Version: 6.00 Build 0)  -->
<svg version="1.1" id="Layer_1" xmlns="http://www.w3.org/2000/svg" xmlns:xlink="http://www.w3.org/1999/xlink" x="0px" y="0px"
	 viewBox="0 0 1200 1200" enable-background="new 0 0 1200 1200" xml:space="preserve">
<g>
	<path fill="#D8E3DE" d="M771.423,864.593c-0.667,1.038-0.352,4.072-0.441,5.215c-2.91,37.455-3.618,75.004-3.754,112.555
		c-0.108,29.867-1.096,60.13,0.983,89.957c0.337,4.841,1.259,9.496,2.943,14.088c1.391,3.792,3.616,7.276,4.892,11.097
		c1.002,3,0.405,5.969,2.366,7.987c4.786,4.924,18.27,6.234,24.792,7.947c7.925,2.081,15.887,4.028,23.88,5.833
		c6.99,1.578,14.034,3.21,21.139,4.194c5.039,0.698,12.501,0.223,14.774,5.924c4.73,11.865-18.038,14.402-24.823,15.497
		c-38.883,6.279-79.632,5.55-118.893,4.176c-16.478-0.576-33-1.622-49.33-3.969c-7.631-1.097-17.863-1.749-24.662-5.928
		c-8.058-4.953-5.565-13.032,2.862-14.813c4.798-1.014,9.858-1.129,14.709-2.046c16.262-3.072,32.433-7.068,48.348-11.6
		c4.056-1.155,10.388-1.965,13.723-4.695c2.627-2.15,1.937-2.72,2.691-6.237c1.734-8.097,6.938-14.764,8.154-23.221
		c1.12-7.792,0.883-15.902,1.034-23.751c0.755-39.134,0.956-78.427-0.175-117.55c-0.523-18.085-1.446-36.164-2.669-54.214
		c-0.254-3.751-0.518-7.502-0.824-11.249c-0.078-0.951,0.07-2.589-0.295-3.477c-1.193-2.908,0.548,0.448-2.277-2.783
		c-2.565-2.934-3.447-5.035-5.343-8.482c-1.441-2.62-0.925-1.567-3.793-3.048c-2.162-1.116-4.919-1.684-7.212-2.524
		c-29.465-10.795-57.554-27.465-75.111-54.177c-15.894-24.181-21.427-53.229-23.747-81.621
		c-5.725-70.079,15.138-139.026,26.859-207.277c1.811-10.548,11.58-8.067,19.985-8.142c11.673-0.103,23.345-0.358,35.016-0.624
		c19.684-0.449,39.374-1.076,59.066-0.999c21.353,0.083,42.705,0.566,64.053,0.993c10.733,0.215,21.526,0.119,32.25,0.627
		c10.093,0.478,8.65,9.237,10.422,17.049c2.484,10.958,4.928,21.924,7.25,32.917c13.555,64.191,27.847,132.801,14.258,198.16
		c-5.704,27.434-17.85,52.834-38.994,71.683c-12.351,11.01-26.823,19.409-41.933,26.026c-4.425,1.938-8.916,3.724-13.451,5.385
		c-2.391,0.876-4.796,1.72-7.212,2.524c-3.023,1.007-2.547,0.713-3.902,3.09c-1.156,2.03-1.072,4.171-2.711,6.125
		C775.252,862.485,772.119,863.51,771.423,864.593z"/>
	<path fill="#785A6D" d="M846.116,703.278c-2.707-2.928-10.114-9.568-9.257-13.552c1.831-8.517,9.999,1.091,12.097,3.761
		c2.727,3.467,11.735,9.195,10.372,13.87C857.042,715.194,848.365,705.71,846.116,703.278z M648.834,706.189
		c4.165-0.354,4.922,5.118,9.024,6.311c2.54,0.739,5.199-0.573,5.634-3.293c0.519-3.247-2.973-5.379-4.962-7.392
		c3.439-1.926,3.672-6.703-0.364-8.089c-1.123-0.301-2.196-0.172-3.219,0.386c-1.444,1.776-2.578,1.771-3.401-0.015
		c-1.799-0.99-3.56-3.854-5.045-5.33c-2.469-2.454-8.955-7.281-10.042-0.495c-0.649,4.053,5.511,7.845,7.981,10.585
		c-3.474,1.533-12.644,4.521-8.64,9.76C639.498,713.456,644.741,706.536,648.834,706.189z M615.781,718.359
		c2.546,26.885,8.308,54.085,23.33,76.938c15.385,23.407,39.352,39.394,64.809,50.127c8.293,3.497,16.238,6.37,25.091,8.039
		c14.816,2.793,30.124,3.119,44.989,0.491c15.02-2.656,28.44-8.855,41.827-15.791c8.717-4.516,17.101-9.793,24.769-15.933
		c1.68-1.346,3.326-2.734,4.933-4.166c21.144-18.848,33.29-44.248,38.994-71.683c1.93-9.282,3.28-18.631,4.167-28.022H615.781z
		 M500.175,110.1c0.395-7.229-0.282-14.684-0.508-21.941c-0.056-1.666,0.424-4.405-0.169-5.986c-0.96-2.598-3.276-3.247-4.038-6.212
		c-0.904-3.586,2.033-11.295,0-14.204c-1.948-2.767-12.566-2.203-15.333-2.372c-18.326-1.214-36.907-1.158-55.233-0.339
		c-6.833,0.311-13.978,2.061-20.755,2.061c-1.299,2.231-0.565,6.523-0.565,9.29c0,1.638,0.423,3.953,0,5.563
		c-0.537,2.118-4.151,4.179-4.038,5.704c0.311,4.998-0.282,10.194-0.395,15.164c-0.169,6.184-1.553,13.752,1.807,18.411
		c1.638,2.259,2.372,2.937,2.541,5.873c0.367,6.918,0,13.95,0,20.868v109.055c0,3.106-1.977,14.571,0,17.197
		c1.299,1.751,10.166,0.536,12.651,0.536h71.385c1.327,0,6.523,0.847,7.596,0c0.706-0.565,0.057-0.847,0.452-1.92
		c1.892-5.534,0-15.107,0-20.868V136.926c0-5.45-0.904-11.775,0-17.197C496.335,114.957,499.893,115.409,500.175,110.1z"/>
	<path fill="#6F8563" d="M588.99,498.906c-0.097,36.661-0.194,73.322-0.291,109.983c-0.264,99.939-0.528,199.877-0.791,299.815
		c-0.103,39.107-0.206,78.215-0.308,117.322c-0.042,15.979-0.697,32.101-0.045,48.068c0.675,16.538,0.98,33.774-7.996,48.437
		c-8.386,13.7-21.637,17.833-36.779,19.68c-35.852,4.372-72.293,3.673-108.349,3.549c-19.624-0.068-39.273-0.371-58.855-1.745
		c-15.781-1.107-34.864-0.906-47.674-11.6c-18.012-15.037-16.814-39.675-16.34-60.819c1.396-62.247-0.328-124.726-0.492-186.984
		c-0.262-99.094-0.523-198.187-0.785-297.281c-0.088-33.405-0.177-66.81-0.265-100.216c-0.083-31.438-0.858-63.671,16.179-91.615
		c7.377-12.1,17.341-22.188,27.937-31.482c12.657-11.103,30.006-20.821,36.463-37.029c7.173-18.006,4.41-39.4,4.407-58.541h8.726
		c1.91,1.408,10.055,0.317,12.414,0.317h71.393c1.314,0,6.523,0.843,7.592,0c0.145-0.115,0.207-0.215,0.257-0.317h8.648v9.839
		c0,11.856-1.169,24.505,0.971,36.168c3.541,19.302,14.542,30.812,29.046,42.975c22.387,18.782,42.402,38.668,50.379,67.716
		C590.918,448.766,589.054,474.563,588.99,498.906z"/>
	<path fill="#F5DFC2" d="M555.098,676.438c0.028,61.897,0.057,123.766,0.057,185.664c0,6.184-0.875,5.337-7.257,6.24
		c-15.672,2.203-31.598,2.796-47.383,3.332c-48.908,1.638-99.228,2.909-147.938-2.796c-2.118-0.226-8.471-0.028-10.137-1.497
		c-1.355-1.186-0.847-4.123-0.847-6.297c-0.028-10.871,0.057-21.743,0.113-32.643c0.169-36.681,0.452-73.362,0.734-110.043
		c0.254-34.281,0.508-68.533,0.819-102.786c0.028-5.196,0.085-10.363,0.113-15.559c0.028-2.315-0.847-6.918,0.085-9.064
		c1.384-3.191,7.088-1.892,11.069-2.061c13.498-0.508,26.995-0.988,40.493-1.299c17.62-0.395,35.241-0.537,52.833-0.311
		c31.4,0.395,62.773,0.96,94.145,1.638c3.078,0.085,11.634-1.045,13.074,1.13c0.791,1.186,0,5.619,0,7.003
		C555.07,623.549,555.098,649.979,555.098,676.438z"/>
	<path fill="#57514E" d="M534.052,357.429c-14.504-12.163-25.505-23.673-29.046-42.975c-2.14-11.663-0.971-24.312-0.971-36.168
		c0-12.124,0-24.248,0-36.372c0-24.583,0-49.166,0-73.75c0-10.481,0-20.963,0-31.444c0-4.188-1.218-10.504,0-14.584
		c0.319-1.07,1.616-1.579,2.245-2.619c2.096-3.462,2.331-6.805,2.356-10.757c0.047-7.415-0.319-14.854-0.54-22.265
		c-0.058-1.935,0.124-4.135-0.212-6.05c-0.563-3.21-3.226-4.966-3.954-7.55c-1.422-5.043,1.612-10.87-1.21-15.747
		c-4.306-7.444-21.92-6.28-28.942-6.582c-17.951-0.773-36.126-0.816-54.063,0.283c-8.761,0.537-23.313-0.23-24.606,11.05
		c-0.395,3.447,1.188,8.298,0,11.549c-1.255,3.435-3.715,4.716-4.043,8.994c-0.223,2.906-0.178,5.86-0.26,8.772
		c-0.186,6.606-0.791,13.397-0.421,19.999c0.289,5.148,3.425,7.546,4.619,11.618c1.4,4.772,0,12.048,0,16.969
		c0,42.874,0,85.748,0,128.621c0,19.148,2.77,40.554-4.407,58.569c-6.457,16.209-23.806,25.927-36.463,37.029
		c-10.596,9.295-20.56,19.382-27.937,31.482c-17.037,27.944-16.262,60.177-16.179,91.615c0.088,33.405,0.177,66.81,0.265,100.216
		c0.262,99.094,0.524,198.187,0.785,297.281c0.164,62.258,1.888,124.737,0.492,186.984c-0.474,21.145-1.672,45.782,16.34,60.819
		c12.81,10.695,31.893,10.493,47.674,11.6c19.582,1.374,39.23,1.677,58.855,1.744c36.056,0.124,72.496,0.823,108.349-3.549
		c15.142-1.847,28.393-5.98,36.779-19.68c8.976-14.663,8.671-31.899,7.996-48.437c-0.652-15.966,0.003-32.089,0.045-48.067
		c0.102-39.107,0.205-78.215,0.308-117.322c0.263-99.938,0.527-199.877,0.791-299.815c0.097-36.661,0.194-73.322,0.291-109.983
		c0.064-24.343,1.928-50.139-4.559-73.761C576.454,396.096,556.438,376.21,534.052,357.429z M399.547,81.663
		c-0.135-1.521,3.476-3.584,4.034-5.708c0.422-1.605,0-3.91,0-5.561c0-2.768-0.75-7.052,0.557-9.281
		c6.774,0,13.912-1.746,20.747-2.054c18.334-0.825,36.913-0.886,55.232,0.323c2.771,0.183,13.402-0.38,15.342,2.387
		c2.038,2.908-0.908,10.612,0,14.185c0.752,2.961,3.066,3.613,4.031,6.215c0.588,1.584,0.131,4.322,0.18,5.987
		c0.211,7.248,0.897,14.702,0.508,21.946c-0.285,5.303-3.837,4.853-4.614,9.632c-0.882,5.419,0,11.732,0,17.197
		c0,24.505,0,49.009,0,73.514c0,11.846,0,23.691,0,35.537c0,5.77,1.913,15.341,0,20.857c-0.378,1.09,0.259,1.377-0.434,1.924
		c-1.069,0.843-6.278,0-7.592,0c-11.366,0-22.732,0-34.099,0c-12.432,0-24.863,0-37.295,0c-2.479,0-11.355,1.21-12.669-0.543
		c-1.955-2.611,0-14.076,0-17.197c0-11.233,0-22.466,0-33.699c0-25.117,0-50.235,0-75.352c0-6.916,0.371-13.949,0-20.857
		c-0.157-2.926-0.905-3.606-2.541-5.885c-3.344-4.656-1.965-12.23-1.806-18.389C399.258,91.849,399.841,86.655,399.547,81.663z
		 M579.119,1074.871c1.804,19.623,0.092,47.141-21.263,55.703c-13.268,5.32-30.351,4.817-44.428,5.554
		c-16.027,0.84-32.08,1.081-48.127,1.15c-27.685,0.118-55.428,0.298-83.075-1.325c-13.432-0.789-30.291-0.237-42.691-6.093
		c-10.473-4.946-16.017-15.34-18.415-26.24c-3.404-15.472-1.092-33.173-1.134-49.186c-0.062-23.685-0.124-47.371-0.186-71.056
		c-0.202-77.029-0.406-154.058-0.609-231.087c-0.194-73.56-0.388-147.12-0.583-220.68c-0.053-20.109-0.106-40.218-0.16-60.327
		c-0.03-11.379,0.064-22.737,1.886-34.014c4.005-24.789,16.008-45.217,34.221-62.211c8.961-8.361,18.794-15.655,27.99-23.731
		c13.428-11.792,19.631-26.695,20.921-44.433c0.407-5.592,0.01-11.157,0.01-16.749c0-1.961-1.299-11.512,0-12.723
		c1.323-1.233,8.629-0.189,10.504-0.189c18.451,0,36.901,0,55.352,0c7.425,0,14.85,0,22.275,0c5.674,0,3.957,1.425,3.957,7.432
		c0,11.772-0.794,23.486,1.876,35.067c3.579,15.519,11.749,27.415,23.602,37.78c16.683,14.588,34.718,27.897,45.98,47.471
		c13.882,24.128,13.61,51.285,13.539,78.126c-0.159,60.182-0.318,120.365-0.477,180.547c-0.216,81.765-0.432,163.529-0.647,245.294
		c-0.137,52.138-0.276,104.276-0.41,156.414C579.018,1068.519,578.837,1071.726,579.119,1074.871z M370.865,377.86
		c1.184-1.038,3.224-1.683,4.61-2.406c3.059-1.597,8.684-6.101,12.384-5.573c8.009,1.143,1.59,7.838-1.882,9.65
		c-3.513,1.833-9.008,6.321-13.15,6.321C367.423,385.851,368.155,380.236,370.865,377.86z M357.036,391.573
		c5.299,0.871,11.806,9.189,16.952,8.845c4.452-0.298,11.445-6.034,15.396-8.117c1.467-0.774,3.945-2.682,5.742-2.65
		c5.451,0.098,5.172,5.21,2.172,8.054c-3.575,3.39-10.247,5.403-14.638,7.718c2.051,1.2,5.793,2.471,6.323,5.187
		c0.537,2.757-1.295,5.061-4.113,5.259c-4.947,0.349-7.85-5.866-12.739-4.894c-3.232,0.642-5.87,4.948-9.556,2.757
		c-4.6-2.735-0.92-7.133,2.35-8.537c-3.855-2.066-7.733-4.091-11.651-6.034C347.71,396.402,352.43,390.816,357.036,391.573z
		 M341.875,416.326c2.858-2.049,5.837,0.441,8.28,1.898c3.802,2.267,9.514,3.979,12.788,6.83c2.102,1.829,3.48,4.589,0.902,6.95
		c-2.39,2.188-5.211,0.243-7.594-0.832c-4.883-2.203-9.409-5.076-14.009-7.798C339.739,421.899,339.49,418.034,341.875,416.326z
		 M377.709,991.001c-2.359,2.446-6.37,7.928-9.082,7.447c-2.809-0.498-7.342-5.016-9.653-6.65c2.534-2.237,8.681-5.708,9.481-9.139
		c0.788-3.378-1.885-5.834-5.206-5.233c-3.453,0.625-6.115,5.601-9.018,7.271c-3.795,2.184-3.063,1.463-6.845-1.374
		c-2.27-1.703-4.525-3.426-6.763-5.17c3.784-2.86,17.44-7.684,14.13-13.52c-3.42-6.029-14.712,3.414-18.358,6.102
		c0.091-8.916,0.181-17.832,0.272-26.748c1.184,0.813,5.452,2.693,5.876,4.037c0.692,2.189-3.29,4.621,1.029,6.812
		c1.903,0.965,3.168-0.56,4.881-0.705c2.809-0.237,1.204-0.879,4.366,0.952c2.938,1.701,5.706,3.92,8.505,5.842
		c1.646,1.131,4.228,3.54,6.39,3.488c4.874-0.118,4.678-5.146,2.238-7.839c-3.156-3.482-8.803-6.047-12.707-8.729
		c6.533-3.434,2.281-10.857-4.192-7.413c-2.44,1.298-2.074,2.072-4.241,1.62c-1.738-0.363-3.907-2.684-5.437-3.735
		c2.646-2.277,5.678-6.429,8.746-7.98c0.744-0.709,1.487-1.417,2.231-2.126c1.653,1.098,3.313,2.186,4.979,3.265
		c4.507,2.915,11.006,8.973,16.221,9.697c5.643,0.784,6.194-4.332,3.244-7.582c-4.133-4.554-13.034-8.023-18.166-11.401
		c2.557-2.445,5.699-6.922,8.768-6.379c2.064,0.365,3.515,3.011,5.728,3.401c3.721,0.655,6.752-2.559,4.719-6.206
		c-0.877-1.573-3.392-2.669-4.835-3.634c2.35-1.803,2.165-5.604-0.441-7.082c-3.265-1.851-4.989,2.045-7.339,1.88
		c-3.628-0.255-8.26-6.27-11.635-7.779c-5.297-2.368-9.507,2.112-5.143,6.753c2.665,2.835,7.31,4.888,10.56,7.06
		c-1.79,1.641-4.353,5.416-6.626,6.234c-2.398,0.864-5.434-2.18-7.906-3.932c-2.102-1.489-7.861-4.394-9.109-6.632
		c-0.512-0.919-0.113-2.096-0.285-3.26c-0.437-2.966,0.409-7.3-4.16-7.349c-2.784-0.029-3.744,2.18-4.282,4.453
		c-1.795,7.584-0.179,17.591-0.257,25.335c-0.274,26.963-0.548,53.927-0.821,80.89c-0.038,3.732-0.624,9.133,4.961,9.048
		c3.778-0.057,8.893-7.229,11.581-9.728c2.509-2.332,6.704-7.457,9.486-6.888c3.093,0.633,7.348,5.132,10.024,6.934
		c-2.024,2.036-4.486,5.537-6.965,7.005c-1.206-0.464-2.388-0.412-3.547,0.157c-1.284,0.7-2.032,1.787-2.243,3.259
		c0.84,1.816,0.297,3.181-1.626,4.094c-1.207,1.232-2.409,2.468-3.607,3.708c-1.598,1.659-4.06,3.409-4.229,5.919
		c-4.466-3.676-11.39-6.369-13.378,1.536c-0.779,3.096,0,7.37,0,10.536c0,4.404-0.426,9.063,0,13.449
		c0.406,4.178,6.253,9.985,8.287,2.939c2.875,2.242,5.732,4.507,8.574,6.791c-1.4,1.566-2.948,4.162-4.728,5.341
		c-2.658,1.761-2.757,0.246-5.443,1.343c-2.592,1.059-2.082,2.748-2.509,4.883c1.107,0.892,1.227,1.641,0.36,2.248
		c-0.581,0.561-1.04,1.214-1.377,1.959c0.042,4.358,1.423,5.365,5.626,5.373c4.704,0.009-0.924-3.453,4.702-0.903
		c1.408,0.638,3.218,2.481,4.491,3.418c3.049,2.245,18.731,14.979,17.679,3.839c-0.449-4.761-14.903-12.285-18.445-15.122
		c1.152-1.307,3.779-5.683,5.386-6.09c2.372-0.601,4.438,2.024,6.859,4.049c2.91,2.434,8.631,9.716,12.878,9.647
		c4.54-0.074,4.539-4.556,2.788-7.429c-3.028-4.966-11.53-9.832-15.935-13.451c1.276-1.337,5.171-6.61,7.016-6.832
		c1.812-0.218,7.231,4.921,9.011,5.869c5.449,2.901,11.619-0.302,6.519-5.937c-3.639-4.021-11.262-7.883-15.503-10.19
		c-6.185-3.365-11.958-8.601-17.486-12.944c3.647-1.082,5.828-6.174,8.8-8.31c2.625-1.886,1.206-1.902,4.031-0.439
		c1.273,0.659,2.468,1.997,3.534,2.93c3.498,3.062,8.544,10.26,12.941,11.427c2.569,0.682,5.231-0.642,5.603-3.412
		c0.43-3.202-2.919-5.147-5.005-7.046c-4.318-3.931-8.485-7.965-13.107-11.55c1.12-1.127,5.74-7.252,7.279-7.32
		c1.712-0.076,3.275,2.839,5.454,2.749c6.133-0.253,4.143-6.628,0.629-8.89c2.363-2.395,8.301-6.319,8.062-10.049
		C384.764,990.277,380.359,988.257,377.709,991.001z M336.95,916.049c3.382,2.473,6.797,4.901,10.243,7.283
		c-3.395,3.233-6.823,6.444-10.414,9.462C336.837,927.213,336.893,921.631,336.95,916.049z M341.861,995.811
		c-1.936,1.774-3.862,3.559-5.775,5.357c0.053-5.231,0.106-10.462,0.159-15.693c3.061,2.373,6.146,4.714,9.26,7.016
		C344.287,993.594,343.072,994.701,341.861,995.811z M357.086,1052.016c-0.715,0.664-5.65,6.382-6.458,6.43
		c-0.915,0.054-3.977-3.18-4.763-3.802c-2.222-1.759-8.329-4.92-9.37-7.386c-1.126-2.668,0-7.894,0-10.865
		C343.16,1041.852,350.058,1047.033,357.086,1052.016z M359.32,1120.052c-2.327,2.042-4.825,0.583-7.114-0.572
		c-5.371-2.712-9.764-7.272-11.984-12.878c-2.528-6.383,2.553-12.583,6.983-5.713c3.576,5.545,4.664,9.102,11.108,12.213
		C360.897,1114.351,361.503,1118.136,359.32,1120.052z M451.984,471.633c4.221-1.686,29.571-15.65,32.467-8.407
		c2.896,7.246-25.103,14.586-29.323,16.271c-4.217,1.684-29.573,15.653-32.467,8.407
		C419.765,480.658,447.764,473.318,451.984,471.633z M450.743,448.093c3.727-1.645,20.662-12.325,23.557-5.766
		c2.892,6.553-16.41,11.87-20.137,13.515c-3.722,1.642-20.674,12.318-23.557,5.766C427.706,455.048,447.03,449.732,450.743,448.093z
		 M460.053,402.715c5.182,1.321,3.064,6.215,0.214,8.399c-2.819,2.161-10.724,6.607-14.534,5.881
		c-4.204-0.801-6.356-6.907-1.1-8.325C448.549,407.613,456.08,401.702,460.053,402.715z M475.504,518.148
		c-3.998,1.787-28.372,16.574-31.557,9.471c-3.176-7.083,24.131-15.429,28.099-17.203c4.37-1.954,28.395-16.543,31.557-9.471
		C506.769,508.029,479.899,516.183,475.504,518.148z M487.47,536.49c-0.873,3.624-6.538,4.503-9.45,5.705
		c-4.113,1.698-8.175,3.521-12.174,5.475c-4.104,2.006-8.717,5.803-13.083,6.97c-3.221,0.861-7.191-0.556-6.216-4.756
		c0.793-3.415,6.794-5.309,9.44-6.706c8.391-4.43,17.07-8.322,25.963-11.633C485.145,530.373,488.232,533.325,487.47,536.49z
		 M447.511,968.104c-5.134,3.224-10.185,6.577-15.203,9.979c-3.043,2.063-11.987,9.719-13.463,2.087
		c-1.204-6.228,20.247-16.8,25.028-19.786c4.944-3.088,24.265-18.211,28.056-11.59C475.583,955.197,452.56,964.932,447.511,968.104z
		 M450.797,943.071c-1.089,1.39-3.261,2.268-4.704,3.185c-4.102,2.606-9.109,7.196-13.754,8.738c-5.508,1.827-8.298-3.08-4.604-7.11
		c1.108-1.208,3.276-2.081,4.645-2.951c4.424-2.811,8.847-5.621,13.271-8.432C450.203,933.606,453.617,939.473,450.797,943.071z
		 M421.093,918.593c2.627-2.311,8.079-8.242,11.56-8.878c8.315-1.521,3.905,7.399,0.885,9.963c-2.42,2.054-7.963,7.805-11.448,7.805
		C415.404,927.483,418.448,920.921,421.093,918.593z M480.584,1030.993c-0.665,1.052-2.117,1.573-3.119,2.226
		c-4.679,3.051-9.668,5.702-14.479,8.539c-6.059,3.573-12.117,7.146-18.176,10.72c-2.682,1.582-5.891,4.406-8.906,5.252
		c-7.722,2.166-7.077-5.347-2.462-8.381c4.664-3.067,9.672-5.704,14.479-8.539c9.037-5.33,18.074-10.659,27.11-15.989
		C479.109,1022.412,482.882,1027.357,480.584,1030.993z M468.9,1016.892c-2.035,2.058-5.641,3.511-8.081,5.03
		c-5.611,3.492-12.274,9.541-18.582,11.565c-5.81,1.864-8.067-3.552-4.197-7.367c2.247-2.214,6.022-3.748,8.691-5.409
		c6.004-3.737,12.009-7.474,18.013-11.211C470.198,1006.118,472.283,1013.47,468.9,1016.892z M454.906,1078.07
		c-1.244,1.497-3.685,2.661-5.249,3.791c-4.537,3.277-9.752,8.69-14.946,10.795c-5.375,2.179-8.506-2.627-5.015-6.829
		c1.244-1.497,3.685-2.661,5.249-3.791c4.999-3.611,9.998-7.222,14.997-10.832C454.817,1067.664,458.017,1074.325,454.906,1078.07z
		 M497.456,394.309c5.157,0,6.625-8.872,11.079-9.617c3.032-0.507,9.507,7.826,12.239,10.604c-1.38,1.192-2.759,2.384-4.139,3.577
		c-2.791,2.412-1.744,2.222-4.215,1.36c-2.599-0.907-3.696-4.679-7.155-1.751c-3.335,2.824-0.132,6.31,1.885,8.587
		c-1.916,1.656-4.87,3.375-6.3,5.444c-2.185,3.161-1.972,8.112,3.273,7.505c2.999-0.347,4.445-4.062,6.995-5.185
		c3.206-1.411-0.54-2.302,3.67,0.533c2.773,1.868,5.187,5.205,7.676,7.484c-2.302,1.927-6.486,4.299-5.399,7.892
		c2.122,7.016,7.508,0.213,10.353-0.991c2.87-1.214,2.336-0.534,5.602,2.102c2.19,1.767,4.943,5.072,8.058,4.292
		c9.427-2.361-3.092-11.144-5.555-13.177c1.765-1.477,3.717-3.738,5.728-4.793c2.906-1.525,4.497-0.732,6.872-3.817
		c-0.545,0.707,0.551-2.279,0.776-2.582c0.605-0.818,2.056-1.72,2.813-2.354c1.668-1.396,4.435-3.017,5.719-4.785
		c1.89-2.605,2.385-7.159-2.253-7.547c-2.303-0.192-3.85,1.692-5.481,2.971c-1.562,1.225-4.299,4.842-6.139,5.137
		c-2.759,0.443-8.121-7.033-10.428-9.386c2.045-1.767,4.993-3.528,6.587-5.692c2.826-3.836,0.793-9.06-4.572-7.025
		c-2.654,1.007-4.176,4.821-6.796,5.654c-2.181,0.694-1.645,0.498-3.92-1.808c-2.773-2.811-5.552-5.615-8.328-8.424
		c2.398-1.762,5.628-3.617,4.171-7.094c-1.999-4.772-5.343-1.392-8.218-0.473c-3.122,0.998-1.645,1.057-4.734-1.32
		c-1.524-1.173-2.845-2.602-4.987-2.049c-6.479,1.673-1.185,7.862,1.158,10.226C501.482,379.613,485.964,394.309,497.456,394.309z
		 M536.362,411.22c-1.598,1.337-4.222,4.654-6.168,5.161c-3.521,0.918-8.074-5.563-10.927-8.591c1.594-1.378,4.291-4.89,6.252-5.402
		c3.118-0.814-2.283-2.231,3.129,0.948C531.436,404.974,534.091,408.894,536.362,411.22z M550.278,559.786
		c2.136-1.529,6.012-4.945,8.877-4.799c6.206,0.317,3.882,6.195,0.895,8.572c-2.082,1.657-6.429,5.177-9.26,5.177
		C544.057,568.735,547.208,561.982,550.278,559.786z M554.614,1081.585c-2.078,2.582-5.271,4.667-7.764,6.874
		c1.588,1.241,4.738,2.819,5.586,4.786c2.083,4.831-2.536,6.911-6.311,5.397c-2.071-0.831-3.472-3.673-5.586-4.364
		c-2.065-0.674-3.533,1.435-5.571-0.956c-1.216-1.427-0.544-3.157-1.345-4.446c-1.586-2.555-6.744-3.809-3.365-8.001
		c3.39-4.206,5.424,0.552,8.446,1.22c2.696,0.596,1.957,0.531,4.891-2.066c1.953-1.729,3.906-3.458,5.859-5.187
		C554.235,1070.601,557.826,1077.593,554.614,1081.585z M558.161,1043.784c-0.716,1.334-2.517,2.451-3.598,3.407
		c-3.57,3.161-7.141,6.322-10.711,9.483c3.068,2.653,13.117,8.238,11.544,13.171c-2.118,6.638-8.696,0.413-11.251-1.757
		c-1.107-0.94-5.607-5.768-6.818-5.637c-0.408,0.044-1.393,1.34-1.683,1.49c-2.835,1.473-5.531,4.897-7.931,7.022
		c-1.587,1.405-3.659,3.964-6.004,3.897c-4.801-0.137-4.514-4.696-2.674-7.527c2.59-3.984,8.44-7.473,11.997-10.622
		c-4.099-3.639-14.68-10.16-16.368-15.409c-1.61-5.006,3.06-6.519,6.772-4.805c3.118,1.439,6.495,6.035,9.067,8.368
		c0.725,0.658,5.986,6.22,6.913,6.195c1.37-0.037,4.878-4.319,5.906-5.228c4.214-3.73,3.979-3.067-0.187-7.733
		c-1.563-1.75-3.461-4.801-5.524-6.04c-4.497-2.701-0.197-1.218-4.199,0.209c-2.67,0.952-6.474,4.272-8.119-0.67
		c-1.135-3.412,2.377-5.559,4.528-7.464c-2.643-2.587-16.031-11.958-8.093-15.696c6.423-3.024,10.18,10.55,14.776,9.778
		c3.286-0.552,6.715-9.128,10.517-2.553c2.243,3.878-2.398,6.679-4.882,8.878c3.952,4.124,7.766,8.378,11.506,12.694
		C558.066,1035.925,559.85,1040.636,558.161,1043.784z M564.451,916.207c-2.186,2.436-4.886,4.558-7.282,6.793
		c3.564,3.392,9.639,7.474,10.459,12.166c0.754,4.313,0,9.461,0,13.823c0,14.742,0,29.483,0,44.225c0,10.121,1.66,21.816,0,31.826
		c-1.271,7.663-8.19,4.624-8.471-1.694c-0.226-5.073,0.735-5.653-3.159-9.006c-3.669-3.159-7.199-6.608-10.537-10.115
		c-3.332-3.5-6.623-7.178-9.569-11.01c-2.307-3.001-4.266-10.668,2.666-8.825c4.154,1.104,8.306,8.831,11.191,12.008
		c2.974,3.274,6.163,6.327,9.408,9.331c0-17.05,0-34.1,0-51.15c-2.404,2.385-10.076,7.763-11.279,10.988
		c-0.862,2.31-0.295,1.137,1.432,3.729c1.773,2.662,6.444,5.387,7.174,8.656c1.447,6.481-5.153,5.747-8.36,2.82
		c-2.715-2.477-4.997-5.679-7.431-8.445c-3.427,3.184-13.362,15.913-18.457,12.228c-6.359-4.6,6.252-12.499,9.271-15.273
		c4.146-3.81,3.112-1.997,1.427-5.771c-0.944-2.115-3.194-3.094-1.811-5.974c2.813-5.856,7.865,0.029,10.149,2.624
		c6.59-6.27,24.95-17.695,14.699-26.605c-3.671-3.191-3.315-5.241-7.058-2.852c-3.016,1.924-5.659,5.278-8.295,7.737
		c2.612,2.063,6.625,6.678,1.52,9.039c-3.855,1.783-5.581-3.268-8.302-2.712c-2.439,0.499-11.231,13.431-12.876,3.042
		c-0.464-2.933,2.216-4.684,4.109-6.45c3.436-3.206,2.768-2.639-0.179-6.475c-2.011-2.617-4.839-7.341,0.124-8.92
		c4.01-1.276,7.128,4.321,9.165,6.897c3.546-3.307,7.091-6.615,10.637-9.922c-4.491-4.274-8.982-8.548-13.474-12.822
		c-1.639-1.56-4.245-3.326-4.324-5.828c-0.15-4.808,4.705-4.658,7.515-2.832c5.479,3.56,8.963,10.194,14.446,13.748
		c2.92,1.893,0.7,1.821,3.539,0.548c2.358-1.057,4.774-4.453,6.7-6.25c-2.994-2.679-24.503-18.129-15.826-22.059
		c4.072-1.844,9.005,4.589,11.547,6.863c3.823,3.42,7.645,6.84,11.468,10.26C569.688,907.506,566.822,913.566,564.451,916.207z
		 M411.089,339.864c3.22-1.995,6.596-3.769,9.885-5.649c-2.216-2.969-8.482-8.789-5.748-12.958c2.935-4.476,6.62-0.261,8.523,2.285
		c0.734,0.982,3.285,6.156,4.648,6.431c0.607,0.123,1.912-1.23,2.524-1.442c2.156-0.748,4.359-2.491,6.363-3.636
		c-1.908-2.175-9.247-13.613-11.867-13.67c-1.811-0.04-3.88,2.996-5.682,3.56c-4.651,1.455-8.411-2.406-5.105-6.602
		c1.313-1.666,4.194-2.824,5.95-3.924c-1.876-2.529-11.165-14.012-1.861-14.029c3.133-0.006,4.559,3.331,6.142,5.55
		c2.409,3.378,1.669,3.572,4.523,2.963c2.996-0.64,9.119-6.703,10.272,0.509c0.603,3.772-4.108,5.626-6.685,7.241
		c2.301,2.9,7.357,11.396,10.827,12.965c2.584,1.169,1.426-0.415,4.217-0.694c5.877-0.588,9.119,5.579,2.638,8.251
		c2.413,2.562,10.932,8.676,5.231,12.458c-4.048,2.685-7.486-2.567-9.904-5.093c-3.399-3.551-3.03-2.964-6.902-0.751
		c-1.764,1.008-3.528,2.016-5.292,3.024c2.442,2.85,14.565,12.384,6.731,15.702c-2.917,1.236-4.735-1.167-6.591-2.929
		c-1.317-1.25-6.093-8.389-7.63-8.494c-5.03-0.343-10.073,8.241-15.547,8.241C402.818,349.175,407.955,341.805,411.089,339.864z
		 M333.207,561.083c2.291,0,4.271-2.026,4.227-4.316c3.122,2.429,13.289,13.37,16.653,6.541c2.356-4.783-9.028-12.449-12.797-14.083
		c6.318-3.585,12.664-7.117,19.264-10.164c2.04-0.942,2.855-1.197,4.681-0.827c1.595,0.324,1.771,2.049,3.837,1.99
		c5.624-0.161,2.276-4.314,3.569-6.382c1.444-2.309,5.754-0.984,5.791-5.193c0.026-2.962-2.519-4.159-5.024-4.111
		c-2.065,0.04-3.68,1.886-5.648,2.16c-3.532,0.493-2.201,0.196-5.277-1.232c-3.878-1.8-7.828-4.572-11.504-6.757
		c4.067-2.177,9.344-6.473,13.559-5.271c3.375,0.962,6.054,4.418,9.348,5.661c4.643,1.752,9.016-2.027,5.465-6.401
		c-1.628-2.005-5.038-3.246-7.223-4.569c4.345-2.035,23.852-7.159,21.085-13.862c-2.921-7.076-20.174,4.043-24.446,6.044
		c-6.6,3.092-6.824,1.651-12.846-1.995c-3.379-2.046-6.758-4.092-10.137-6.138c3.31-1.679,6.613-3.371,9.906-5.082
		c1.328-0.69,5.929-3.871,7.398-3.883c2.491-0.019,6.089,4.256,8.608,5.086c3.967,1.308,8.775-1.226,5.907-5.961
		c-1.057-1.746-4.141-2.834-5.796-3.812c3.979-2.159,12.321-4.967,15.014-8.48c2.195-2.864,1.798-6.623-2.387-7.289
		c-3.959-0.63-12.196,5.894-15.723,7.808c-2.434,1.32-4.07,2.673-6.577,2.144c-1.301-0.275-3.059-1.986-4.114-2.68
		c-3.123-2.058-11.106-9.639-14.413-4.499c-3.462,5.382,7.932,10.38,11.144,12.492c-2.578,1.352-16.148,10.348-18.471,8.484
		c-1.048-0.841,0.192-10.122,0.234-11.711c0.123-4.75,0.282-9.499,0.478-14.246c6.011,2.956,13.644-7.362,19.443-7.195
		c4.507,0.129,8.399,8.521,13.764,8.136c2.732-0.196,4.736-2.692,4.077-5.391c-0.765-3.136-6.436-5.174-8.787-6.911
		c6.09-2.802,12.884-5.102,18.61-8.563c2.707-1.637,6.462-4.521,2.861-7.795c-2.583-2.349-5.887-0.135-8.426,1.033
		c-3.923,1.805-7.845,3.61-11.768,5.415c-1.974,0.908-6.194,3.993-8.416,3.873c-4.579-0.247-8.206-8.673-13.7-7.885
		c-2.633,0.378-4.315,2.569-3.733,5.3c0.677,3.179,6.116,4.96,8.495,6.698c-4.03,1.855-8.061,3.709-12.091,5.564
		c0.207-4.096,2.787-13.827-0.901-16.7c-5.898-4.595-6.9,4.755-7.106,8.146c-0.772,12.699-1.235,25.416-1.464,38.136
		c-0.246,13.677-0.218,27.36,0.04,41.037C327.995,529.082,325.564,561.083,333.207,561.083z M351.236,528.634
		c1.746,0.97,3.473,1.973,5.18,3.01c-6.695,3.111-13.14,6.712-19.556,10.354c-0.205-6.019-0.364-12.041-0.481-18.062
		c2.637,1.908,4.865-0.491,7.268,0.2C346.134,524.849,348.943,527.345,351.236,528.634z M354.473,507.345
		c-4.14,2.117-8.407,4.397-12.5,5.97c-2.753,1.058-3.4,2.119-5.69,3.871c-0.093-6.837-0.144-13.675-0.114-20.512
		c2.469-0.222,6.757,3.678,8.776,4.901C348.121,503.499,351.297,505.422,354.473,507.345z M569.757,509.836
		c-0.053,4.856,2.08,20.708-2.832,23.431c-7.051,3.908-6.062-7.689-5.938-10.901c-3.19,2.865-6.38,5.73-9.57,8.595
		c-1.326,1.191-4.715,3.154-5.337,4.793c-0.731,1.923-0.465-0.229,0.213,2.206c0.842,3.024,10.535,10.017,2.529,12.547
		c-4.406,1.392-7.781-5.467-9.941-8.289c-3.736,3.355-7.797,8.631-12.211,10.967c-3.754,1.986-8.387-0.336-6.663-4.954
		c0.795-2.129,4.124-4.151,5.693-5.56c1.575-1.415,6.967-4.73,7.531-6.763c0.455-1.643-1.878-3.103-2.904-4.866
		c-1.776-3.05-2.443-8.464,3.083-7.869c2.929,0.315,5.047,4.549,6.632,6.619c4.926-4.424,9.853-8.848,14.779-13.273
		c1.605-1.442,4.716-3.333,5.837-5.242c2.433-4.144,0.669-14.239,0.628-19.274c-1.862,1.56-8.042,5.027-8.659,7.255
		c-0.891,3.219,4.571,6.221-0.091,9.195c-3.229,2.06-5.648-0.593-6.76-3.455c-4.897,4.103-9.794,8.207-14.691,12.31
		c-1.479,1.239-3.239,3.388-5.096,4.099c-5.022,1.923-7.634-2.972-4.748-6.899c3.438-4.679,10.193-8.541,14.634-12.261
		c1.279-1.071,5.749-3.621,6.258-5.244c0.812-2.587-3.918-9.343-5.412-11.885c-3.168,2.517-6.858,6.79-10.545,8.378
		c-2.953,1.272-7.385,0.62-6.842-3.8c0.298-2.428,2.688-3.63,4.357-5.045c1.886-1.599,5.951-3.589,7.238-5.75
		c1.604-2.693-0.705-4.156-2.487-7.29c-1.665-2.929-3.936-9.158,2.302-8.855c3.991,0.194,6.421,6.89,8.205,9.774
		c2.623-2.084,5.32-4.948,8.254-6.557c3.753-2.059,9.032-0.082,6.834,4.965c-1.317,3.023-6.02,4.563-8.149,6.899
		c-2.023,2.22-1.703,0.843-1.834,3.051c-0.143,2.405,4.112,7.705,5.19,10.158c3.691-3.093,10.271-6.817,11.918-11.048
		c2.531-6.502-2.214-15.767-0.119-22.502c1.394-4.48,8.537-6.081,8.471,0.088C569.332,475,569.947,492.417,569.757,509.836z
		 M863.014,515.304c-1.772-7.812-0.329-16.571-10.422-17.049c-10.723-0.508-21.517-0.412-32.25-0.627
		c-21.348-0.427-42.701-0.909-64.053-0.993c-19.692-0.077-39.382,0.55-59.066,0.999c-11.671,0.266-23.342,0.521-35.016,0.624
		c-8.405,0.074-18.174-2.406-19.985,8.142c-11.72,68.25-32.584,137.198-26.859,207.276c2.32,28.391,7.852,57.44,23.747,81.621
		c17.557,26.712,45.646,43.382,75.111,54.177c2.293,0.84,5.05,1.408,7.212,2.524c2.868,1.48,2.352,0.427,3.793,3.048
		c1.896,3.447,2.778,5.548,5.343,8.482c2.825,3.23,1.084-0.125,2.277,2.783c0.364,0.888,0.217,2.526,0.295,3.477
		c0.306,3.747,0.57,7.498,0.824,11.249c1.222,18.051,2.146,36.129,2.669,54.215c1.131,39.124,0.93,78.417,0.175,117.55
		c-0.151,7.849,0.086,15.959-1.034,23.751c-1.216,8.458-6.42,15.124-8.154,23.221c-0.753,3.518-0.063,4.087-2.691,6.237
		c-3.336,2.73-9.668,3.54-13.723,4.695c-15.915,4.533-32.086,8.528-48.348,11.601c-4.85,0.916-9.911,1.031-14.709,2.045
		c-8.427,1.781-10.92,9.86-2.861,14.813c6.799,4.179,17.03,4.831,24.662,5.928c16.33,2.347,32.853,3.393,49.33,3.969
		c39.261,1.373,80.01,2.102,118.893-4.176c6.785-1.096,29.553-3.633,24.823-15.497c-2.272-5.7-9.734-5.226-14.774-5.924
		c-7.106-0.984-14.149-2.615-21.14-4.194c-7.992-1.805-15.954-3.752-23.88-5.833c-6.522-1.713-20.006-3.022-24.792-7.946
		c-1.961-2.018-1.364-4.987-2.366-7.987c-1.276-3.821-3.501-7.305-4.892-11.097c-1.684-4.592-2.605-9.247-2.943-14.088
		c-2.08-29.826-1.092-60.09-0.983-89.957c0.136-37.551,0.845-75.1,3.754-112.555c0.089-1.142-0.226-4.177,0.441-5.215
		c0.696-1.083,3.829-2.107,4.895-3.378c1.639-1.954,1.554-4.095,2.711-6.125c1.355-2.378,0.879-2.084,3.902-3.09
		c2.417-0.805,4.821-1.648,7.212-2.524c4.535-1.662,9.027-3.448,13.451-5.385c15.11-6.617,29.582-15.015,41.933-26.026
		c21.144-18.848,33.29-44.249,38.994-71.683c13.589-65.359-0.702-133.968-14.258-198.16
		C867.942,537.228,865.499,526.262,863.014,515.304z M649.325,515.657c0.674-3.025,1.275-5.794,1.359-8.888
		c35.924,0.166,71.825-1.854,107.748-1.652c17.264,0.097,34.527,0.444,51.787,0.783c9.129,0.179,18.258,0.368,27.388,0.547
		c3.702,0.073,9.797-1.006,13.146,0.248c2.245,0.841,1.198-0.692,2.331,1.199c0.697,1.164,0.678,4.901,1.04,6.512
		c13.067,58.217,27.78,118.984,27.396,179.051c-0.038,5.963-0.372,11.91-0.824,17.855c-0.262,3.451,0.282,4.31-2.504,5.403
		c-1.386,0.543-4.367,0.076-5.858,0.102c-11.059,0.19-22.118,0.371-33.177,0.54c-26.159,0.401-52.321,0.802-78.484,0.891
		c-25.163,0.086-50.329-0.295-75.489-0.637c-12.378-0.169-24.756-0.352-37.134-0.546c-4.969-0.078-9.938-0.157-14.907-0.239
		c-1.701-0.028-3.401-0.056-5.102-0.084c-3.909-0.065-2.907,0.694-4.159-2.736c-2.067-5.661-1.001-14.537-1.046-20.686
		c-0.042-5.81,0.131-11.621,0.434-17.423c0.743-14.203,2.263-28.362,4.134-42.457C632.657,593.848,640.609,554.615,649.325,515.657z
		 M833.01,817.497c-2.535-3.266-5.82-6.163-8.708-9.122c3.043-1.818,8.31-6.158,11.112-5.288c2.15,0.667,5.171,4.986,6.853,6.604
		C839.324,812.455,836.22,815.05,833.01,817.497z M874.893,750.924c-1.961-1.797-15.757-15.559-15.369-4.277
		c0.126,3.671,9.675,12.264,13.219,12.2c-1.896,6.37-4.224,12.621-7.074,18.627c-3.32-2.918-6.505-5.986-9.672-9.067
		c2.997-1.446,7.45-3.851,4.39-7.799c-3.809-4.913-7.117,2.027-10.901,1.514c-3.909-0.529-5.51-9.03-10.863-6.317
		c-5.591,2.833-0.028,7.795,2.491,10.122c-3.125,1.458-12.022,5.07-6.771,9.752c4.349,3.877,9.949-4.015,13.999-2.891
		c2.206,0.612,5.552,5.382,7.274,6.995c2.141,2.004,5.747,4.089,5.52,6.303c-0.542,5.29-9.51,13.777-12.945,17.549
		c-2.024-1.947-4.034-3.907-6.06-5.851c2.955-1.679,9.823-5.508,4.862-9.426c-2.079-1.642-3.793-0.577-5.836,0.257
		c-1.135,0.625-2.264,1.26-3.388,1.904c-1.58,1.802-2.962,1.621-4.148-0.543c-3.133-1.477-7.917-8.732-11.588-3.346
		c-2.954,4.333,3.296,7.412,5.923,9.655c-2.227,1.342-6.012,4.808-8.551,5.145c-3.901,0.518-4.809-5.577-8.941-6.225
		c-2.58-0.405-4.946,1.162-5.131,3.956c-0.193,2.912,3.524,5.488,5.31,7.33c-4.634,2.592-6.866,9.254,0.713,9.001
		c1.202-0.216,2.289-0.718,3.264-1.506c1.681-1.86,3.056-1.586,4.127,0.823c2.655,1.54,5.209,5.353,7.347,7.59
		c-5.372,3.572-10.992,6.769-16.761,9.653c-0.483-3.732-8.095-8.109-10.86-10.722c-2.55-2.411-8.126-9.955-12.464-7.604
		c-8.218,4.456,12.53,19.495,15.971,21.815c-8.158,3.651-16.535,6.457-24.934,9.462c-2.521,0.902-4.653,1.091-6.007,3.668
		c-2.193,4.173,0.403,5.277-3.626,8.146c-1.549,1.103-2.177,0.185-3.446,2.046c-1.356,1.988-1.069,5.965-1.257,8.152
		c-0.771,8.971-1.26,17.973-1.749,26.963c-1.596,29.3-2.092,58.581-2.199,87.914c-0.091,24.997-0.177,50.01,0.405,75.003
		c0.165,7.108,0.049,14.426,1.135,21.473c1.078,6.997,3.896,13.002,6.624,19.409c1.794,4.212,0.479,8.686,3.392,12.244
		c4.283,5.232,13.954,6.952,20.015,8.689c7.098,2.034,14.257,3.867,21.426,5.633c13.804,3.401,27.55,6.273,41.618,8.188
		c-9.171,3.817-20.017,4.667-29.761,5.717c-23.424,2.525-47.013,2.769-70.547,2.768c-22.69-0.001-45.371-0.371-67.966-2.634
		c-11.129-1.115-23.493-1.914-34.098-5.87c17.903-1.872,35.551-6.478,52.932-11.051c8.877-2.336,19.717-4.095,27.426-9.333
		c6.051-4.111,4.071-10.179,7.052-16.401c3.158,1.668,9.343,3.701,9.901-1.855c0.247-2.453-1.092-3.235-2.869-4.466
		c-3.703-2.565-3.829-0.704-2.522-5.765c2.825,1.151,6.942,2.198,8.164-1.791c1.294-4.223-2.784-4.172-4.95-6.048
		c-2.848-2.467-1.216-9.206-1.089-13.309c0.404-13.022,0.488-26.055,0.551-39.082c0.13-26.946,0.251-53.927-0.309-80.869
		c-0.387-18.62-1.281-37.234-2.452-55.82c-0.51-8.095-0.251-16.916-1.966-24.843c-0.466-2.156-0.638-3.453-2.396-4.804
		c-3.206-2.464-3.485,0.343-5.024-4.81c-1.012-3.39,0.306-4.292-3.312-6.364c-3.061-1.753-7.55-2.426-10.868-3.607
		c-8.158-2.903-16.185-6.202-23.94-10.062c-13.465-6.701-26.176-15.14-36.702-25.951c-21.353-21.933-30.135-51.371-33.634-81.114
		c68.305,1.148,136.545,1.81,204.855,0.805c16.505-0.243,33.009-0.51,49.513-0.801C878.348,733.825,876.947,742.45,874.893,750.924z
		 M760.608,1113.215c-2.351,1.994-10.64,1.6-13.46,0.831c-3.773-1.029-6.625-5.569-1.844-8.098c3.169-1.677,8.686,0.21,12.21-0.439
		C762.311,1104.634,763.81,1110.499,760.608,1113.215z M763.771,1125.443c7.25-0.071,14.514-0.574,21.758-0.584
		c4.374-0.006,10.541,4.216,4.422,7.925c-2.547,1.544-8.21,0.72-11.122,0.816c-3.871,0.128-7.744,0.214-11.617,0.27
		c-8.517,0.123-17.037,0.095-25.553-0.065c-8.094-0.152-16.954,0.422-24.965-0.881c-2.64-0.429-5.602-1.023-5.411-4.54
		c0.122-2.256,2.213-4.116,4.465-3.996C731.734,1125.279,747.76,1125.599,763.771,1125.443z M651.214,625.987
		c-2.652-2.972-16.549-14.812-13.548-19.968c3.089-5.307,7.272,0.861,9.755,1.096c3.299,0.311,12.154-6.08,14.992-7.591
		c-2.211-2.605-6.337-9.677-9.419-11.277c-2.102-1.091-1.718,0.533-4.071,0.636c-5.866,0.256-8.74-6.132-2.16-8.367
		c-1.975-2.519-2.698-6.716,1.407-7.795c3.934-1.034,4.029,3.575,6.506,3.955c2.433,0.373,8.807-4.274,11.109-5.391
		c-2.795-3.396-17.727-16.798-15.393-21.994c1.413-3.146,4.784-2.158,7.287-2.987c2.259-0.748,4.573-2.46,6.687-3.597
		c-1.916-1.923-4.995-3.958-3.918-7.14c0.788-2.329,3.177-3.088,5.374-2.649c2.61,0.522,4.257,5.401,6.462,5.529
		c1.013,0.059,3.199-1.743,4.098-2.205c3.09-1.586,9.716-3.847,9.076,2.565c-0.338,3.39-4.893,4.803-7.467,6.188
		c2.368,2.742,9.015,8.397,7.492,12.652c-2.267,6.333-7.327,0.735-9.435-1.714c-1.025-1.191-4.242-6.673-5.706-6.822
		c-0.538-0.055-1.673,1.047-2.135,1.149c-2.032,0.449-4.228,2.275-6.099,3.282c6.235,7.44,12.295,15.026,18.567,22.436
		c2.139,2.527,9.124,11.47,0.662,11.448c-5.371-0.014-6.759-8.791-11.27-8.805c-2.717-0.008-7.474,3.627-10.022,4.863
		c2.449,2.974,4.92,5.93,7.407,8.872c3.198,3.782,2.315,1.826,6.117,1.089c6.481-1.256,6.707,5.727,2.06,8.439
		c2.059,2.357,7.696,6.779,8.14,10.114c0.556,4.17-3.265,5.566-6.449,4.115c-2.053-0.936-3.983-4.03-5.442-5.666
		c-0.62-0.702-1.24-1.403-1.859-2.105c-0.992-2.607-2.399-2.951-4.221-1.032c-4.283,0.77-9.675,5.016-13.679,6.946
		c2.204,2.496,5.49,7.676,8.385,7.53c2.772-0.14,4.966-3.53,7.978-2.954c2.554,0.488,4.278,2.864,3.463,5.479
		c-0.82,2.629-4.584,3.63-6.779,4.65c2.363,2.725,9.191,8.438,4.449,12.2c-3.732,2.961-6.772-1.841-8.845-4.315
		c-1.835-2.19-2.519-3.568-4.835-3.693c-2.106-0.113-6.308,2.834-8.28,3.748c-3.061,1.419-8.648,5.36-11.001,0.609
		C633.508,631.151,647.408,627.694,651.214,625.987z M644.478,667.545c-2.673-3.389-13.835-13.52-8.21-17.824
		c2.937-2.248,4.136,0.864,6.333,1.418c1.991,0.502,5.689-1.515,8.132-2.466c3.185-1.24,14.542-7.295,13.298,1.258
		c-0.745,5.123-11.64,7.01-15.754,8.709c1.66,2.153,3.038,5.272,5.438,5.313c1.795,0.031,4.715-1.833,6.39-2.485
		c2.645-1.028,7.414-4.052,10.443-3.707c7.122,0.809,3.275,7.232-0.725,9.016c-3.711,1.655-7.614,2.962-11.402,4.436
		c2.758,3.219,11.284,9.131,12.51,13.23c0.805,2.691-0.909,5.579-3.913,5.646c-3,0.068-6.058-3.764-7.983-5.677
		c-1.851-1.839-6.897-9.629-8.953-9.956c-1.11-0.176-3.451,1.343-4.452,1.732c-3.194,1.243-9.38,4.879-11.338-0.136
		C632.172,670.594,641.092,668.861,644.478,667.545z M663.492,709.207c-0.435,2.72-3.094,4.031-5.634,3.293
		c-4.102-1.193-4.859-6.665-9.024-6.311c-4.093,0.348-9.336,7.267-13.034,2.429c-4.004-5.239,5.166-8.227,8.64-9.76
		c-2.47-2.74-8.63-6.532-7.981-10.585c1.086-6.786,7.572-1.959,10.042,0.495c1.485,1.476,3.246,4.34,5.045,5.33
		c0.823,1.786,1.957,1.791,3.402,0.015c1.023-0.559,2.096-0.687,3.218-0.386c4.036,1.386,3.803,6.164,0.364,8.089
		C660.519,703.828,664.011,705.96,663.492,709.207z M713.516,537.067c2.527,5.994-14.341,12.974-16.816,7.093
		C694.207,538.251,710.999,531.095,713.516,537.067z M711.49,559.094c-3.43,1.565-15.06,10.501-16.362,2.277
		c-1.015-6.412,26.93-19.321,29.397-11.555C726.421,555.83,715.085,557.452,711.49,559.094z M701.906,584.291
		c-5.557,1.097-8.129-4.088-3.631-7.655c2.127-1.687,7.076-3.594,9.707-4.247c4.936-1.224,9.821,4.958,3.959,7.512
		C708.81,581.271,705.249,583.631,701.906,584.291z M713.969,610.701c-1.493,1.197-5.187,2.876-7.07,3.213
		c-5.488,0.98-7.855-4.222-3.502-7.71c1.837-1.472,4.904-2.232,7.06-3.213C715.931,600.507,717.778,607.645,713.969,610.701z
		 M823.04,665.629c-4.409-3.821,2.756-9.621,5.117-12.333c2.36-2.712,7.089-10.614,11.512-6.771
		C844.837,651.03,828.2,670.102,823.04,665.629z M849.017,528.747c5.01,0.954,3.705,5.46,1.169,7.94
		c-3.699,3.617-8.92,6.175-12.777,9.899c2.791,2.8,8.148,10.084,11.298,9.615c3.442-0.513,6.759-9.069,11.009-3.423
		c3.233,4.294-3.323,7.94-5.933,10.235c3.358,2.795,5.675,10.775-1.294,9.582c-1.565-0.268-3.714-3.682-4.813-3.711
		c-1.506-0.039-4.752,3.865-6.094,5.075c4.362,4.199,10.44,8.73,13.697,13.884c1.109,1.755,2.317,3.092,1.225,5.319
		c-1.139,2.324-2.828,1.216-4.207,2.338c-3.283,2.672-6.147,7.536-8.868,11.124c2.734,1.048,5.125,4.808,7.003,6.889
		c1.706-2.315,3.765-6.147,7.161-5.71c2.775,0.357,4.008,2.896,3.488,5.46c-0.449,2.215-5.042,4.633-4.894,6.724
		c0.135,1.906,5.572,6.417,6.909,7.988c2.222,2.614,8.799,10.214,1.363,11.5c-4.698,0.813-10.556-9.219-13.28-12.341
		c-2.302,3.314-7.871,14.824-13.317,11.579c-5.374-3.202,1.321-9.304,3.467-12.288c1.825-2.538,4.064-4.359,3.151-6.858
		c-0.761-2.082-4.391-4.997-5.984-6.638c-2.789-2.874-5.81-4.312-3.688-8.955c1.302-2.849,4.267-5.627,6.156-8.119
		c0.748-0.987,4.659-4.765,4.573-6.031c-0.11-1.622-6.696-7.059-8.058-8.051c-4.254-3.098-2.199,0.006-6.312,1.039
		c-7.327,1.84-5.523-6.02-2.102-9.03c-2.311-2.141-9.221-6.389-10.306-9.444c-1.096-3.085,0.482-6.333,4.075-6.158
		c3.05,0.149,6.523,4.415,8.66,6.343c2.82,2.544,2.511,3.497,5.414,2.243c1.35-0.582,3.464-3.125,4.56-4.113
		c-2.309-2.316-6.046-7.986-9.058-9.087c-1.92-0.702-1.715,0.815-4.16,0.702c-3.458-0.16-5.583-4.285-3.185-7.026
		C829.34,542.36,841.503,527.315,849.017,528.747z M859.327,707.357c-2.286,7.838-10.962-1.646-13.211-4.079
		c-2.707-2.928-10.114-9.568-9.257-13.552c1.831-8.517,9.999,1.091,12.097,3.761C851.682,696.954,860.691,702.682,859.327,707.357z
		 M871.335,659.73c0.536,1.545-0.251,2.511-0.606,3.87c-0.664,2.541-1.724,0.857-1.334,3.399c0.425,2.769,4.028,4.936-0.239,7.388
		c-2.535,1.457-4.717-0.141-6.401-2.115c-1.643,2.086-3.453,5.529-5.99,6.479c2.604,2.604,14.951,12.062,7.054,15.377
		c-4.544,1.907-11.036-7.379-13.593-9.936c-3.672-3.673-9.668-7.793-12.298-12.3c-3.416-5.854,2.226-8.44,6.761-5.218
		c2.442,1.735,4.519,4.519,6.645,6.646c0.801-2.126,5.779-5.382,5.728-7.498c-0.076-3.103-7.669-6.53-8.941-9.664
		c-1.639-4.036,1.439-7.249,5.535-5.626c3.412,1.352,6.799,6.458,9.205,9.065c0.536-0.506,1.073-1.011,1.609-1.517
		C866.597,656.106,870.373,656.959,871.335,659.73z M794.518,646.113c-0.212,4.008-5.238,4.748-8.198,5.873
		c-6.59,2.504-13.18,5.013-19.724,7.637c-5.42,2.174-10.8,4.442-16.15,6.782c-6.093,2.665-14.584,8.736-21.107,9.242
		c-2.855,0.221-5.531-1.458-4.974-4.743c0.569-3.356,4.861-4.3,7.554-5.514c6.594-2.972,13.191-5.941,19.84-8.789
		c12.199-5.225,24.616-9.91,37.025-14.608C791.499,640.962,794.673,643.186,794.518,646.113z M751.169,639.746
		c4.231-1.674,17.033-10.591,18.986-3.163c1.581,6.016-12.203,9.609-16.685,11.356c-4.266,1.663-16.454,9.432-19.125,3.35
		C731.438,644.695,746.79,641.478,751.169,639.746z M770.546,680.595c-2.416,1.828-6.795,2.649-9.589,3.997
		c-2.684,1.296-5.248,3.214-7.979,4.344c-5.49,2.271-9.987-1.489-5.604-6.508c4.145-4.746,14.557-7.772,20.343-9.82
		C773.621,670.538,774.237,677.803,770.546,680.595z M744.438,590.727c2.196-1.526,5.59-2.287,8.064-3.299
		c4.325-1.77,12.14-7.038,17-6.594c5.398,0.494,4.646,5.928,1.282,8.27c-2.019,1.406-5.13,2.098-7.396,3.026
		c-4.954,2.026-12.118,6.866-17.615,6.866C740.173,598.994,741.283,592.919,744.438,590.727z M717.264,516.451
		c3.542-2.027,13.054-0.461,17.148-0.498c12.034-0.108,24.069-0.2,36.104-0.24c11.221-0.038,22.442-0.034,33.662,0.06
		c5.607,0.047,11.215,0.116,16.822,0.218c3.64,0.067,10.764-0.99,14.118,0.501c3.521,1.565,4.681,5.918,0.673,7.959
		c-2.721,1.386-8.408,0.14-11.274,0.08c-10.435-0.218-20.872-0.313-31.309-0.35c-24.739-0.089-49.478,0.144-74.215,0.391
		C714.054,524.765,713.678,518.504,717.264,516.451z M660.611,517.629c2.27-1.683,6.717-0.887,9.378-0.925
		c4.859-0.07,9.718-0.137,14.578-0.201c3.933-0.052,11.118-1.384,14.806-0.187c3.234,1.05,5.863,3.863,3.031,7.195
		c-2.662,3.133-11.161,1.377-14.932,1.426c-8.16,0.106-16.327,0.341-24.488,0.341C658.731,525.278,657.47,519.958,660.611,517.629z
		 M419.538,71.622c2.743-0.847,6.155-0.708,8.991-0.893c6.567-0.43,13.158-0.514,19.737-0.469
		c10.992,0.075,23.375-0.716,34.167,1.375c3.911,0.758,8.367,4.701,3.308,8.038c-3.366,2.22-13.102-0.157-16.813-0.333
		c-9.308-0.442-18.631-0.704-27.95-0.572c-6.83,0.097-14.127-0.046-20.865,1.349C413.476,81.439,414.448,73.194,419.538,71.622z
		 M413.663,114.248c1.225-0.923,3.762-0.874,5.177-1.08c8.111-1.184,16.433-1.508,24.614-1.705
		c6.144-0.148,12.601,1.321,17.439-2.615c3.294-2.68,6.33-5.826,9.836-8.225c3.041-2.08,9.973-3.588,8.826,2.775
		c-0.589,3.27-6.946,6.592-9.268,8.673c4.114,0.286,14.065-0.354,17.513,2.111c3.856,2.756,1.771,6.936-2.13,7.895
		c-4.181,1.028-11.19-1.217-15.7-1.53c-5.534-0.385-11.081-0.596-16.628-0.652c-12.194-0.124-24.701,0.19-36.772,2.13
		C411.832,122.79,410.283,116.793,413.663,114.248z M436.682,197.74c-0.278,2.508-2.974,3.991-4.75,5.427
		c2.815,2.269,5.046,7.24-0.249,8.509c-2.083,0.499-2.595-0.872-4.288-1.29c-0.76-0.591-1.504-1.2-2.234-1.827
		c-0.768,0.587-1.547,1.159-2.337,1.716c-2.952,1.147-9.709,7.539-11.088,0.342c-0.759-3.957,4.743-6.172,7.267-8.033
		c-2.293-2.553-8.483-8.1-9.163-11.676c-0.706-3.714,2.498-6.388,6.025-4.963c3.882,1.568,5.949,10.766,9.81,11.389
		c0.679,0.109,3.578-2.895,4.141-3.35C432.682,191.679,437.086,194.091,436.682,197.74z M428.839,222.376
		c-0.373,3.406-9.584,9.623-12.33,10.643c-4.324,1.606-10.124-2.839-5.217-6.673C413.047,224.973,430.144,210.462,428.839,222.376z
		 M429.394,141.332c1.124,4.366-2.777,6.465-6.363,4.842c-2.221-1.005-8.54-7.77-9.086-10.521c-0.88-4.435,3.718-7.26,7.253-4.118
		C423.213,133.321,428.761,138.874,429.394,141.332z M409.542,154.753c-0.312-6.079,5.259-4.658,8.246-2.216
		c2.552,2.087,6.505,8.385,9.877,9.067c2.388,0.483,4.062-2.882,7.261-1.891c9.935,3.076-7.298,14.343-9.621,16.056
		c-2.953,2.178-10.951,8.504-12.342,1.246c-0.843-4.397,6.083-7.096,8.887-9.256c-1.061-0.93-2.139-1.838-3.234-2.726
		C415.813,162.744,409.738,158.572,409.542,154.753z M408.86,249.01c-2.934-4.975,0.814-9.076,5.925-6.056
		c2.479,1.465,3.821,5.308,6.415,6.524c2.054,0.962,4.261-1.564,6.71,0.75c5.262,4.973-7.199,11.669-10.564,13.623
		c-2.718,1.579-7.004,2.93-7.937-1.61c-0.737-3.588,3.126-5.363,5.526-7.052C413.076,253.297,410.199,251.28,408.86,249.01z
		 M434.857,95.007c-0.325,1.467-1.777,2.466-2.718,3.513c-1.919,2.137-4.862,5.909-7.547,7.158c-2.44,1.136-5.599,0.645-6.373-2.464
		c-0.639-2.569,1.371-4.092,2.869-5.723c2.105-2.292,4.483-4.383,6.691-6.579C430.818,87.894,435.73,91.06,434.857,95.007z
		 M457.746,151.451c0.228-1.952,1.698-2.726,2.943-3.912c2.614-2.491,6.868-6.65,10.202-8.077c6.675-2.856,7.952,3.748,3.896,7.722
		c-3.044,2.982-6.856,5.428-10.202,8.077C461.724,157.525,457.324,155.069,457.746,151.451z M480.884,159.577
		c0.635,3.62-3.292,5.329-5.804,6.848c-2.365,1.429-4.836,2.69-7.143,4.213c-2.588,1.709-4.816,4.702-7.456,6.126
		c-2.541,1.371-6.094,1.884-7.084-1.954c-0.921-3.572,3.389-6.342,5.751-8.243c4.72-3.799,10.201-6.364,15.223-9.716
		C476.784,155.234,480.378,156.691,480.884,159.577z M463.409,185.088c2.093-1.759,5.995-5.999,9.085-5.607
		c9.907,1.256-4.046,15.192-9.018,15.192C455.885,194.672,460.641,187.413,463.409,185.088z M479.459,206.808
		c-0.957,1.396-3.081,2.603-4.36,3.683c-3.78,3.194-7.995,8.439-12.456,10.524c-3.776,1.765-8.385-0.429-6.51-5.152
		c0.644-1.622,3.103-3.057,4.377-4.134c4.493-3.797,8.985-7.594,13.478-11.391C478.643,196.414,482.176,202.848,479.459,206.808z
		 M479.264,224.773c-0.08,2.193-1.869,3.337-3.25,4.724c-2.513,2.524-5.805,6.611-8.95,8.343c-6.709,3.694-8.027-3.42-4.263-7.608
		c2.81-3.126,6.263-5.839,9.342-8.709C474.841,219.013,479.398,221.107,479.264,224.773z M466.095,93.298
		c-0.306,1.902-1.76,2.59-3.014,3.71c-2.535,2.265-6.576,5.753-9.732,7.035c-6.867,2.79-7.898-4.034-3.731-7.758
		c2.959-2.644,6.593-4.766,9.813-7.094C462.423,87.028,466.672,89.704,466.095,93.298z M360.723,626.961
		c2.562-2.451,7.719-9.707,11.803-9.576c9.088,0.29,0.853,9.195-1.609,11.55c-2.601,2.488-7.629,9.576-11.711,9.576
		C349.594,638.511,358.466,629.121,360.723,626.961z M360.033,661.825c2.749-2.518,8.628-9.392,12.823-7.934
		c5.74,1.995,1.61,6.73-0.955,8.951c-2.91,2.519-9.182,10.208-13.023,10.208C349.944,673.05,357.777,663.891,360.033,661.825z
		 M378.788,799.511c-0.317,1.514-2.241,3.179-3.139,4.3c-2.502,3.124-5.556,8.41-8.884,10.695c-2.669,1.833-7.066,2.163-7.478-2.314
		c-0.214-2.33,1.638-3.813,2.916-5.452c2.969-3.807,6.184-7.445,9.269-11.159C374.535,791.891,379.663,795.332,378.788,799.511z
		 M387.444,827.362c10.782-9.845,21.37-19.964,32.374-29.56c2.747-2.396,10.161-6.892,9.873,0.776
		c-0.118,3.13-4.97,6.219-6.982,8.055c-11.344,10.358-22.687,20.715-34.031,31.073c-3.169,2.893-19.987,22.845-25.129,17.211
		C358.192,849.044,384.023,830.485,387.444,827.362z M421.015,832.086c-1.595,2.79-5.83,5.502-8.108,7.849
		c-2.268,2.338-4.869,6.685-7.605,8.344c-4.808,2.914-8.662-0.265-6.436-5.504c2.567-6.042,11.651-12.596,16.452-16.959
		C419.975,821.596,423.295,828.098,421.015,832.086z M519.992,622.796c2.844-3.549,11.103-17.024,16.667-13.459
		c6.424,4.117-5.701,13.459-8.326,16.633c-3.033,3.666-11.582,20.337-17.241,16.615
		C504.813,638.457,517.284,626.176,519.992,622.796z M518.899,657.365c2.37-2.7,6.985-10.563,11.12-10.791
		c9.171-0.506,1.531,9.217-0.699,11.757c-2.389,2.721-7.173,10.8-11.4,10.8C508.786,669.131,516.797,659.759,518.899,657.365z
		 M547.509,709.729c5.05,4.586-11.855,23.268-16.948,18.641C525.514,723.775,542.436,705.122,547.509,709.729z M386.379,641.515
		c1.228-2.666,6.196-4.982,8.644-6.561c4.431-2.859,14.415-10.612,19.88-9.426c2.562,0.556,4.064,3.16,3.134,5.668
		c-1.128,3.043-7.003,4.415-9.562,5.737c-3.575,1.847-7.041,3.904-10.384,6.144c-2.239,1.5-5.191,4.771-8.027,4.771
		C386.695,647.848,385.105,644.283,386.379,641.515z M753.209,855.625c6.608,0.315,4.716,8.94-1.349,8.491
		C743.673,864.935,745.054,855.351,753.209,855.625z M652.434,757.313c-2.073-0.586-3.719,0.645-5.959,1.656
		c-2.046,0.924-4.748,2.668-7.069,1.663c-8.015-3.469,2.438-8.835,5.338-10.202c-2.841-2.491-16.978-12.901-8.442-16.228
		c6.525-2.543,10.598,10.333,16.033,11.615c4.976,1.174,12.77-9.932,18.033-6.123c7.305,5.288-7.587,11.203-10.693,12.803
		c2.291,2.211,5.74,4.826,3.768,8.28c-1.333,2.334-4.59,2.9-6.551,0.893C656.229,760.994,653.592,757.64,652.434,757.313z
		 M713,763.823c2.201-1.569,5.634-2.376,8.123-3.426c4.348-1.834,12.194-7.247,17.104-6.852c5.412,0.436,4.708,5.871,1.371,8.252
		c-2.025,1.445-5.168,2.18-7.449,3.142c-4.956,2.09-12.238,7.137-17.773,7.137C708.801,772.075,709.89,766.041,713,763.823z
		 M755.183,773.183c-0.848,1.365-1.95,1.51-3.19,2.177c-3.758,2.022-8.09,3.364-12.026,5c-5.471,2.275-10.942,4.55-16.414,6.825
		c-2.418,1.005-5.585,3.074-8.207,3.412c-6.599,0.853-7.068-5.398-2.19-8.263c3.714-2.182,8.338-3.467,12.31-5.119
		c8.207-3.412,16.414-6.825,24.62-10.237C754.038,765.346,757.266,769.828,755.183,773.183z M713.025,825.93
		c-2.607,2.775-6.586,0.517-9.322-0.773c-6.226-2.934-13.571-7.878-18.311-12.919c-5.294-5.63,0.145-10.211,6.051-6.033
		c6.511,4.605,11.969,10.314,19.762,12.835C714.019,819.95,715.07,823.754,713.025,825.93z M749.05,826.868
		c3.424-0.784,6.093-4.789,9.446-5.892c5.515-1.815,8.346,3.21,4.359,7.264c-2.314,2.353-6.332,3.95-9.148,5.706
		c2.378,1.902,3.126,5.614,0.301,7.457c-3.251,2.121-4.033-0.706-6.484-1.66c-1.821-0.709-3.845,0.081-5.693-0.921
		c-2.937-1.593-1.454-5.072-2.428-7.2c-3.896-8.516-9.442,1.435-14.848,2.139c-3.895,0.507-6.628-2.97-4.426-6.523
		c1.595-2.574,6.518-4.204,9.057-5.833c-2.081-2.081-5.451-4.358-6.899-6.899c-1.838-3.226-0.701-8.107,4.069-7.093
		c1.517,0.323,2.555,1.854,3.631,2.813c1.562,1.394,3.03,3.725,4.812,4.812c2.601,1.586,0.455,0.954,3.315,0.762
		c2.779-0.186,5.269-3.445,7.533,0.663c1.621,2.94-0.599,5.143-2.944,6.478C745.281,825.52,746.036,827.558,749.05,826.868z
		 M839.604,735.795c2.607-1.241,7.047-4.36,9.767-4.27c7.136,0.236,3.78,6.946,0,9.018c-2.799,1.535-7.01,4.213-10.191,4.213
		C831.917,744.756,835.929,737.544,839.604,735.795z M782.973,765.356c1.309-2.657,5.781-3.951,8.285-5.177
		c4.619-2.261,14.999-9.106,20.18-7.717c2.536,0.68,3.931,3.319,2.891,5.798c-1.107,2.638-5.324,3.325-7.657,4.279
		c-3.514,1.436-6.987,2.979-10.409,4.622c-2.705,1.299-6.537,4.371-9.61,4.371C783.375,771.532,781.661,768.019,782.973,765.356z
		 M769.012,791.611c0.058-3.23,2.99-3.858,5.366-4.97c3.546-1.659,7.192-3.103,10.73-4.787c2.509-1.194,6.642-4.446,9.476-4.383
		c7.873,0.176,3.409,7.24-0.385,9.358c-5.245,2.927-14.868,9.088-20.951,9.088C770.916,795.918,768.97,793.949,769.012,791.611z
		 M681.471,743.296c-2.544-2.551-6.237-9.172,0.645-9.386c3.492-0.108,7.872,5.679,10.009,7.847c2.45,2.485,7.372,9.868-0.237,9.868
		C688.254,751.625,683.733,745.565,681.471,743.296z M675.894,797.067c-4.773,4.28-10.203-4.972-12.685-7.988
		c-1.38-1.677-4.431-7.179-6.487-7.961c-1.903-0.724-2.086,0.754-4.405,1.107c-5.456,0.831-7.092-5.811-2.297-8.165
		c-1.891-1.573-2.85-4.202-1.15-6.354c2.14-2.709,4.281-1.025,6.635-0.118c3.4,1.31,0.719,1.76,4.126,0.558
		c1.78-0.628,3.211-2.281,4.943-3.042c3.917-1.72,9.792,0.156,6.685,5.441c-1.334,2.269-5.787,3.952-7.921,5.265
		c1.181,1.426,2.351,2.861,3.511,4.305C669.445,783.338,680.773,792.693,675.894,797.067z M543.818,834.59
		c0.092,4.08,0.207,8.16,0.345,12.239c0.109,3.232,1.574,9.507,0.149,12.339c-2.305,4.583-6.944,2.712-8.204-1.293
		c-2.311-7.349-0.672-18.451-0.825-26.18c-0.173-8.754-0.244-17.511-0.211-26.267c0.017-4.628,0.065-9.256,0.14-13.883
		c0.055-3.356-0.784-8.431,0.409-11.574c1.61-4.244,8.43-4.357,8.284,1.028C543.439,798.858,543.414,816.729,543.818,834.59z
		 M523.438,841.378c0,3.584,1.722,13.469-4.236,13.381c-5.994-0.088-4.236-9.71-4.236-13.381c0-3.674-1.975-14.948,4.236-14.948
		C525.412,826.43,523.438,837.647,523.438,841.378z M355.265,780.84c-0.258-0.978,0.02-2.386,0-3.379
		c-0.129-6.393,0-12.802,0-19.197c0-14.009,0-28.018,0-42.027c0-2.621-0.876-7.754,1.241-9.834c5.205-5.113,7.165,2.736,7.23,6.42
		c0.401,22.673,0,45.386,0,68.063C363.737,786.998,356.481,785.45,355.265,780.84z M563.541,836.942v-244.37
		c0-6.438,0.875-11.323-7.172-11.775c-25.809-1.412-51.845-1.073-77.682-1.497c-35.834-0.593-71.611-0.649-107.445,0.536
		c-9.432,0.339-18.863,0.706-28.294,1.073c-10.674,0.367-8.019,17.225-8.076,24.341c-0.141,14.006-0.254,28.012-0.367,42.018
		c-0.311,39.9-0.621,79.8-0.904,119.672c-0.226,30.695-0.508,61.417-0.48,92.112c0,2.683-0.367,5.704,0.057,8.387
		c1.158,7.483,7.285,8.274,13.498,9.206c16.322,2.4,32.954,2.965,49.416,3.501c32.728,1.073,65.568,1.101,98.324,0.198
		c17.903-0.508,35.947-1.073,53.737-3.473c4.97-0.678,12.057-0.847,14.542-5.986c1.073-2.231,0.819-4.603,0.847-6.975
		C563.682,854.929,563.541,845.921,563.541,836.942z M555.098,676.438c0.028,61.897,0.057,123.766,0.057,185.664
		c0,6.184-0.875,5.337-7.257,6.24c-15.672,2.203-31.598,2.796-47.383,3.332c-48.908,1.638-99.228,2.909-147.938-2.796
		c-2.118-0.226-8.471-0.028-10.137-1.497c-1.355-1.186-0.847-4.123-0.847-6.297c-0.028-10.871,0.057-21.743,0.113-32.643
		c0.169-36.681,0.452-73.362,0.734-110.043c0.254-34.281,0.508-68.533,0.819-102.786c0.028-5.196,0.085-10.363,0.113-15.559
		c0.028-2.315-0.847-6.918,0.085-9.064c1.384-3.191,7.088-1.892,11.069-2.061c13.498-0.508,26.995-0.988,40.493-1.299
		c17.62-0.395,35.241-0.537,52.833-0.311c31.4,0.395,62.773,0.96,94.145,1.638c3.078,0.085,11.634-1.045,13.074,1.13
		c0.791,1.186,0,5.619,0,7.003C555.07,623.549,555.098,649.979,555.098,676.438z"/>
</g>
</svg>
